<?xml version="1.0" encoding="UTF-8"?>
<svg width="200" height="32" version="1.1" xmlns="http://www.w3.org/2000/svg" xmlns:xlink="http://www.w3.org/1999/xlink">
 <use transform="rotate(45,100,16)" xlink:href="#b"/>
 <g id="b">
  <path d="m89.5 5.5v21h21v-21z" fill="#222"/>
  <path d="m91 7h18v18h-18z" fill="#fff"/>
 </g>
 <path id="a" d="m128.1 6.189-0.2949 0.9316c2.514 1.102 2.501 4.325 1.238 6.15 0 0-3.145 0.6844-3.949 1.607l0.7817 0.8916c12.74-5.471 29.02 5.777 38.25-6.341l-1.654-1.236c-4.664 5.973-11.64 5.944-19.57 5.055 2.229-2.465 2.37-6.52 2.37-6.52l-1.24-0.08594s-0.9534 4.564-4.253 6.212c0 0-6.946-0.1959-8.833 0.2309 0.6411-3.007 0.26-5.411-2.837-6.896zm30.28 1.945c-0.5523 0-1 0.4477-1 1s0.4477 1 1 1 1-0.4477 1-1-0.4477-1-1-1zm-16.62-1.496c-0.4832 0-0.875 0.3918-0.875 0.875s0.3918 0.875 0.875 0.875 0.875-0.3918 0.875-0.875-0.3918-0.875-0.875-0.875zm-15 2.096c-0.4142 0-0.75 0.3358-0.75 0.75s0.3358 0.75 0.75 0.75 0.75-0.3358 0.75-0.75-0.3358-0.75-0.75-0.75zm72.06-0.7313-1.816 0.8909c0.1588 2.967-3.176 6.413-6.007 7.83 0.4121-2.783-3.133-5.828-5.858-7.211l-0.7466 0.8913c3.605 1.601 7.168 5.433 4.367 7.496-2.475 1.184-4.752 1.824-8.672 2.651 2.046-4.388-4.111-6.521-7.786-7.857l-0.4239 0.7907c3.396 1.399 10.58 4.321 5.676 7.629-8.438 1.312-20.63 1.048-41.51-1.324l1.114 1.705c38.39 4.779 61.48 0.3781 61.66-13.5zm-4.237 0.8705c-0.5464-0.08013-1.054 0.2979-1.134 0.8443-0.0801 0.5465 0.2979 1.054 0.8443 1.135 0.5465 0.08013 1.054-0.2979 1.135-0.8443 0.0801-0.5465-0.2979-1.054-0.8443-1.135zm-10.2 3.285c-0.4781-0.07011-0.9226 0.2607-0.9927 0.7388-0.0701 0.4781 0.2607 0.9226 0.7388 0.9927 0.4781 0.0701 0.9226-0.2607 0.9927-0.7388 0.0701-0.4781-0.2607-0.9226-0.7388-0.9927zm-12.42 2.683c-0.4098-0.06009-0.7908 0.2234-0.8509 0.6332-0.0601 0.4098 0.2234 0.7908 0.6332 0.8509 0.4098 0.06009 0.7908-0.2234 0.8509-0.6333 0.0601-0.4098-0.2234-0.7908-0.6332-0.8509z" fill="#222"/>
 <use transform="matrix(-1,0,0,1,200,0)" xlink:href="#a"/>
</svg>
