<?xml version="1.0" encoding="UTF-8"?>
<svg width="20" height="20" version="1.1" xmlns="http://www.w3.org/2000/svg">
 <path d="m3 1c-1.108 0-2 0.892-2 2v5.227l10.77 10.77h5.227c1.108 0 2-0.892 2-2v-1.25h-2.051a2.75 2.75 0 0 1-2.449 1.5 2.75 2.75 0 0 1-2.75-2.75 2.75 2.75 0 0 1 0.1387-0.8496l-5.537-5.537a2.75 2.75 0 0 1-0.8516 0.1367 2.75 2.75 0 0 1-2.75-2.75 2.75 2.75 0 0 1 1.5-2.447v-2.053h-1.25zm3.75 0v2.051a2.75 2.75 0 0 1 1.5 2.449 2.75 2.75 0 0 1-0.1348 0.8418l5.543 5.543a2.75 2.75 0 0 1 0.8418-0.1348 2.75 2.75 0 0 1 2.447 1.5h2.053v-6.5h-2.051a2.75 2.75 0 0 1-2.449 1.5 2.75 2.75 0 0 1-2.75-2.75 2.75 2.75 0 0 1 2.75-2.75 2.75 2.75 0 0 1 2.447 1.5h2.053v-1.25c0-1.108-0.892-2-2-2h-10.25zm-1.25 3.25a1.25 1.25 0 0 0-1.25 1.25 1.25 1.25 0 0 0 1.25 1.25 1.25 1.25 0 0 0 1.25-1.25 1.25 1.25 0 0 0-1.25-1.25zm9 0a1.25 1.25 0 0 0-1.25 1.25 1.25 1.25 0 0 0 1.25 1.25 1.25 1.25 0 0 0 1.25-1.25 1.25 1.25 0 0 0-1.25-1.25zm-13.5 7.512v5.238c0 1.108 0.892 2 2 2h5.238l-7.238-7.238zm13.5 1.488a1.25 1.25 0 0 0-1.25 1.25 1.25 1.25 0 0 0 1.25 1.25 1.25 1.25 0 0 0 1.25-1.25 1.25 1.25 0 0 0-1.25-1.25z" fill="#fff"/>
</svg>
