<?xml version="1.0" encoding="UTF-8"?>
<!-- Created with Inkscape (http://www.inkscape.org/) -->
<svg width="180" height="30" version="1.1" viewBox="0 0 47.62 7.938" xmlns="http://www.w3.org/2000/svg" xmlns:cc="http://creativecommons.org/ns#" xmlns:dc="http://purl.org/dc/elements/1.1/" xmlns:rdf="http://www.w3.org/1999/02/22-rdf-syntax-ns#" xmlns:xlink="http://www.w3.org/1999/xlink">
 <metadata>
  <rdf:RDF>
   <cc:Work rdf:about="">
    <dc:format>image/svg+xml</dc:format>
    <dc:type rdf:resource="http://purl.org/dc/dcmitype/StillImage"/>
    <dc:title/>
   </cc:Work>
  </rdf:RDF>
 </metadata>
 <g transform="translate(0 -289.1)">
  <path d="m23.81 289.6-2.641 0.9602c0 3.121 2.641 4.801 2.641 4.801s2.641-1.68 2.641-4.801z" fill="none" stroke="#000" stroke-width=".5556"/>
  <g id="g1591">
   <path d="m26.88 293.8c-0.3176 1.323-2.277 2.646-2.277 2.646s2.541 0 3.494-1.588c0 0-0.9528 1.588 0.6352 1.588" fill="none" stroke="#000" stroke-linejoin="bevel" stroke-width=".5556"/>
   <path d="m28.48 294.3c3.166-4.403 7.767-2.422 7.767-2.422" fill="none" stroke="#000" stroke-width=".5556"/>
   <path d="m29.95 296.5c-1.396-2.923 4.78-5.062 7.179-2.261" fill="none" stroke="#000" stroke-width=".5556"/>
   <path d="m34.32 291.5c2.672-0.5056 2.894-1.896 2.894-1.896" fill="none" stroke="#000" stroke-width=".5556"/>
   <path d="m32.44 291.5c0.841-0.6951 0.6926-1.938 0.6926-1.938" fill="none" stroke="#000" stroke-width=".5556"/>
   <path d="m30.56 292.3c0.4453-1.748-0.7421-1.875-0.7421-1.875" fill="none" stroke="#000" stroke-width=".5556"/>
   <path d="m30.04 294.7c0.9108-1.149 2.291-0.31 2.291-0.31" fill="none" stroke="#000" stroke-width=".5556"/>
   <path d="m32.16 293.3c1.481-0.2228 2.483 1.118 2.483 1.118" fill="none" stroke="#000" stroke-width=".5556"/>
   <path d="m31.6 295.3c-4.028 2.662 16.63-0.7464 15.13-3.502" fill="none" stroke="#000" stroke-width=".5556"/>
   <path d="m43.1 294.3c1.652-0.954 0.8792-2.35 0.8792-2.35" fill="none" stroke="#000" stroke-width=".5556"/>
   <path d="m40.4 292s0.9342 2.532-1.797 3.555" fill="none" stroke="#000" stroke-width=".5556"/>
  </g>
  <use transform="matrix(-1 0 0 1 47.62 3.411e-6)" width="100%" height="100%" xlink:href="#g1591"/>
 </g>
</svg>
