<?xml version="1.0" encoding="UTF-8"?>
<svg width="200" height="30" version="1.1" xmlns="http://www.w3.org/2000/svg" xmlns:xlink="http://www.w3.org/1999/xlink">
	<path id="p1" d="m135.4 0.6-0.2949 0.9321c2.514 1.102 2.408 4.513 1.145 6.338-3.98 1.185-5.571 2.513-7.931 4.771l0.4228 0.4366 0.0266-0.038c15.79-12.77 22.96 5.243 34.62-7.933l-1.654-1.235c-4.664 5.973-9.9 5.383-16.07 3.257 2.229-2.465 2.901-5.99 2.901-5.99l-1.241-0.0864s-0.7772 4.122-4.077 5.77c-1.586-2e-3 -3.356 0.1632-5.243 0.59 0.6412-3.008 0.4945-5.327-2.604-6.812zm9.17 1.235v2e-3a0.7311 0.7311 0 0 0-0.051 2e-3 0.7311 0.7311 0 0 0-0.6725 0.5742 0.7311 0.7311 0 0 0 0.5565 0.8712 0.7311 0.7311 0 0 0 0.8712-0.5585 0.7311 0.7311 0 0 0-0.5585-0.8712 0.7311 0.7311 0 0 0-0.1454-0.019zm-44.62 0.2359v13.8c0.3486 1e-3 0.6961 0.019 1.007 0.0552l-0.5034-13.86zm6.476 0.7866-4.069 13.24c0.6172 0.1035 1.361 0.3002 1.941 0.531l3.101-13.52zm51.25 0.2713v2e-3a0.9034 0.9034 0 0 0-0.0628 2e-3 0.9034 0.9034 0 0 0-0.8338 0.71 0.9034 0.9034 0 0 0 0.6903 1.076 0.9034 0.9034 0 0 0 1.076-0.6903 0.9034 0.9034 0 0 0-0.6903-1.076 0.9034 0.9034 0 0 0-0.1788-0.0228zm-22.7 0.5408v2e-3a0.7311 0.7311 0 0 0-0.051 2e-3 0.7311 0.7311 0 0 0-0.6746 0.5743 0.7311 0.7311 0 0 0 0.5585 0.8712 0.7311 0.7311 0 0 0 0.8712-0.5585 0.7311 0.7311 0 0 0-0.5585-0.8712 0.7311 0.7311 0 0 0-0.1454-0.019zm48.52 1.312-1.141 0.7827c1.3 2.897-2.286 6.293-4.881 8.106 4e-3 -2.813-3.87-4.799-6.767-5.772l-0.6096 0.9892c3.799 1.061 7.662 3.897 5.19 6.344-2.277 1.531-4.912 3.045-7.683 4.466 0.8752-3.76-5.305-6.004-9.135-6.792l-0.3048 0.8437c3.563 0.8911 10.89 3.453 6.519 7.437-5.381 2.721-11.82 5.019-17.15 6.187-2.779 0.5791-4.398 0.6678-2.352-1.19l-0.4445-0.3539c-3.263 2.986 1.432 2.541 1.432 2.541 5.849-0.3284 40.66-11.99 37.33-23.59zm-70.54 0.4424-7.359 11.74c0.5694 0.2599 1.238 0.6436 1.738 1.017l6.494-12.25zm68.04 0.7119a0.7058 0.7058 0 0 0-0.6844 0.7257 0.7058 0.7058 0 0 0 0.7276 0.6844 0.7058 0.7058 0 0 0 0.6843-0.7276 0.7058 0.7058 0 0 0-0.7276-0.6824zm-0.6805 2.604a0.5327 0.5327 0 0 0-0.5172 0.5487 0.5327 0.5327 0 0 0 0.5487 0.5152 0.5327 0.5327 0 0 0 0.5172-0.5487 0.5327 0.5327 0 0 0-0.5487-0.5152zm-61.71 0.8555-10.15 9.434c0.4827 0.3982 1.029 0.9436 1.416 1.434l9.443-10.16zm50.58 0.3619a0.6813 0.6813 0 0 0-0.6608 0.7001 0.6813 0.6813 0 0 0 0.702 0.6608 0.6813 0.6813 0 0 0 0.6608-0.702 0.6813 0.6813 0 0 0-0.7021-0.6588zm2.57 1.119a0.5923 0.5923 0 0 0-0.5742 0.6116 0.5923 0.5923 0 0 0 0.6116 0.5742 0.5923 0.5923 0 0 0 0.5742-0.6116 0.5923 0.5923 0 0 0-0.6116-0.5742zm2.21 1.449a0.5033 0.5033 0 0 0-0.4877 0.5172 0.5033 0.5033 0 0 0 0.5192 0.4877 0.5033 0.5033 0 0 0 0.4877-0.5172 0.5033 0.5033 0 0 0-0.5192-0.4877zm-29.42 2.588c-9.574-0.1313-18.69 8.408-13.84 14.38-0.0228 0.0342-0.0438 0.059-0.0647 0.0906l0.6332-0.4641c-3.001-4.523 1.695-9.278 5.282-7.455l0.5605-0.9361c-1.453-0.5479-2.262-0.679-3.495-0.4405 4.265-3.671 7.131-2.59 10.15 0.1454l0.9675-0.8102s-1.765-1.767-4.376-2.572c3.815-0.9062 7.935-0.5443 10.93 1.851l1.111-1.394c-2.456-1.643-5.172-2.36-7.852-2.397zm-21.49 0.019-12.24 6.488c0.363 0.5096 0.7498 1.175 0.9971 1.748l11.75-7.365zm34.61 0.0472a0.7258 0.7258 0 0 0-0.704 0.7473 0.7258 0.7258 0 0 0 0.7493 0.704 0.7258 0.7258 0 0 0 0.7021-0.7473 0.7258 0.7258 0 0 0-0.7473-0.704zm2.789 0.9675a0.6813 0.6813 0 0 0-0.6607 0.7021 0.6813 0.6813 0 0 0 0.7021 0.6607 0.6813 0.6813 0 0 0 0.6608-0.7021 0.6813 0.6813 0 0 0-0.7021-0.6608zm2.629 1.253a0.5923 0.5923 0 0 0-0.5742 0.6096 0.5923 0.5923 0 0 0 0.6096 0.5742 0.5923 0.5923 0 0 0 0.5742-0.6096 0.5923 0.5923 0 0 0-0.6096-0.5742zm-9.862 1.174a0.7311 0.7311 0 0 0-0.7316 0.7316 0.7311 0.7311 0 0 0 0.7316 0.7315 0.7311 0.7311 0 0 0 0.7315-0.7315 0.7311 0.7311 0 0 0-0.7315-0.7316zm-53.29 0.3322v2.014a8.055 8.055 0 0 1 8.037 7.552h-8.037v1.51h28.19s-8.055-1.51-18.12-1.51h-0.0266a10.07 10.07 0 0 0-10.04-9.565zm78.88 0.9046c1.872 4.108 4.698 4.383 7.717 4.732 0.7907 1.69 1.122 3.171-1.186 3.247v1.595c1.635-0.0152 3.42-0.651 3.314-2.82 3.444 2.546 8.177 2.238 8.177 2.238l0.2184-1.54c-2.788-1.263-5.762-3.344-3.105-6.271l-1.089-1.119zm-33.4 0.6509a0.7311 0.7311 0 0 0-0.7316 0.7316 0.7311 0.7311 0 0 0 0.7316 0.7316 0.7311 0.7311 0 0 0 0.7315-0.7316 0.7311 0.7311 0 0 0-0.7315-0.7316zm34.86 0.2496 11.79 0.0453c-2.037 1.979-0.7897 4.965 1.506 6.204-2.032-0.3227-4.386-1.102-5.727-3.335-2.05 2e-3 -5.661-0.019-7.573-2.914zm-42.16 0.5054a0.7311 0.7311 0 0 0-0.7316 0.7316 0.7311 0.7311 0 0 0 0.7316 0.7316 0.7311 0.7311 0 0 0 0.7315-0.7316 0.7311 0.7311 0 0 0-0.7315-0.7316zm58.65 0.1632a1.83 1.83 0 0 0-1.829 1.831 1.83 1.83 0 0 0 1.829 1.831 1.83 1.83 0 0 0 1.831-1.831 1.83 1.83 0 0 0-1.831-1.831zm-70.89 0.2104-13.5 3.097c0.2188 0.5863 0.419 1.331 0.5093 1.949l13.26-4.073z" color="#000000"/>
	<use transform="matrix(-1 0 0 1 200 0)" xlink:href="#p1"/>
</svg>
