<?xml version="1.0" encoding="UTF-8"?>
<svg width="200" height="32" version="1.1" xmlns="http://www.w3.org/2000/svg" xmlns:xlink="http://www.w3.org/1999/xlink">
 <path id="a" d="m100.5 2.064-0.5391 0.00391v13.8c0.3613-2.53e-4 0.7229 0.01491 1.045 0.05273zm27.53-1.873-0.2949 0.9316c2.514 1.102 2.501 4.325 1.238 6.15 0 0-3.145 0.6844-3.949 1.607l0.3398 0.3613c0.7461-0.6757 5.051-1.822 9.912-1.645 4.868 0.1776 13.24 4.051 23.15-5.791l-1.654-1.236c-4.664 5.973-12.31 8.276-18.48 6.15 2.229-2.465 2.9-5.99 2.9-5.99l-1.24-0.08594s-0.7766 4.122-4.076 5.77c0 0-3.388 0.06929-5.275 0.4961 0.6411-3.007 0.5252-5.234-2.572-6.719zm24.65 0.3203c-0.5523 0-1 0.4477-1 1s0.4477 1 1 1 1-0.4477 1-1-0.4477-1-1-1zm-14.99 0.1289c-0.4832 0-0.875 0.3918-0.875 0.875s0.3918 0.875 0.875 0.875 0.875-0.3918 0.875-0.875-0.3918-0.875-0.875-0.875zm-31.23 2.217-4.068 13.24c0.6172 0.1035 1.361 0.3004 1.941 0.5312l3.1-13.52zm20.23-0.121c-0.4142 0-0.75 0.3358-0.75 0.75s0.3358 0.75 0.75 0.75 0.75-0.3358 0.75-0.75-0.3358-0.75-0.75-0.75zm-13.71 2.688-7.355 11.74c0.5694 0.2599 1.236 0.6438 1.736 1.018l6.492-12.25zm86.31 1.68-1.668 1.145c1.3 2.897-2.212 6.806-4.807 8.619 4e-3 -2.813-3.945-5.312-6.842-6.285l-0.6094 0.9902c3.799 1.061 7.88 4.336 5.408 6.783-2.277 1.531-5.424 2.681-8.195 4.102 1.388-4.638-5.014-6.077-8.844-6.865l-0.3047 0.8438c3.563 0.8911 10.89 3.086 6.521 7.07 0 0-25.41 7.957-46.4 8.494h11.49c30.67-3.062 57.59-12.44 54.25-24.9zm-3.629 1.412c-0.5523 0-1 0.4477-1 1s0.4477 1 1 1 1-0.4477 1-1-0.4477-1-1-1zm-76.99 1.1-10.14 9.432c0.4828 0.3982 1.029 0.9418 1.416 1.432l9.443-10.16zm67.02 3.057c-0.4832 0-0.875 0.3918-0.875 0.875s0.3918 0.875 0.875 0.875 0.875-0.3918 0.875-0.875-0.3918-0.875-0.875-0.875zm-38.65-0.1814c-7.038 0.01235-9.989 2.34-15.15 6.117l0.3691 0.5156c14.18-11.02 18.68-0.8867 18.68-0.8867l0.9355-0.5645s-1.103-3.022-4.393-3.971c5.198-0.3318 9.035 3.255 10.42 7.088l1.477-0.5078s-1.083-3.341-4.295-5.346c6.904 1.5 9.992 6.041 9.992 6.041l1.633-0.709c-5.503-5.487-12.62-7.79-19.66-7.777zm-23.99 2.625-12.24 6.484c0.3632 0.5096 0.7492 1.175 0.9961 1.748l11.75-7.367zm50.66 2.65c-0.4142 0-0.75 0.3358-0.75 0.75s0.3358 0.75 0.75 0.75 0.75-0.3358 0.75-0.75-0.3358-0.75-0.75-0.75zm-73.75 1.143-0.0019 2.012c4.252 0.0012 7.772 3.309 8.037 7.553h-8.037v1.527h28s-5.99-1.527-17.96-1.527c-0.3024-5.35-4.682-9.555-10.04-9.564zm50.98 0.8263c-0.4124 0.03849-0.7162 0.404-0.6777 0.8164s0.404 0.7162 0.8164 0.6777c0.4124-0.03849 0.7162-0.404 0.6777-0.8164s-0.404-0.7162-0.8164-0.6777zm-25.04 1.855-13.5 3.098c0.2188 0.5863 0.4195 1.331 0.5098 1.949l13.26-4.074zm32.24 0.3933c-0.4812 0.0449-0.8359 0.472-0.791 0.9531 0.0449 0.4812 0.472 0.834 0.9531 0.7891 0.4812-0.0449 0.834-0.472 0.7891-0.9531-0.0449-0.4812-0.47-0.834-0.9512-0.7891zm7.098 0.2285c-0.5499 0.05132-0.9556 0.538-0.9043 1.088 0.0513 0.5499 0.5399 0.9556 1.09 0.9043 0.5499-0.05132 0.9537-0.5399 0.9024-1.09-0.0513-0.5499-0.538-0.9537-1.088-0.9023z" fill="#222"/>
 <use transform="matrix(-1,0,0,1,200,0)" width="100%" height="100%" xlink:href="#a"/>
</svg>
