<?xml version="1.0" encoding="UTF-8"?>
<svg width="200" height="30" version="1.1" xmlns="http://www.w3.org/2000/svg" xmlns:xlink="http://www.w3.org/1999/xlink">
	<path id="p1" d="m135.4 0.5996-0.2949 0.9316c2.514 1.102 2.408 4.513 1.145 6.338-3.98 1.185-5.572 2.513-7.932 4.771l0.4238 0.4375 0.02539-0.03906c15.79-12.77 22.96 5.244 34.62-7.932l-1.654-1.236c-4.664 5.973-9.9 5.384-16.07 3.258 2.229-2.465 2.902-5.99 2.902-5.99l-1.242-0.08594s-0.7764 4.122-4.076 5.77c-1.586-2e-3 -3.357 0.163-5.244 0.5898 0.6412-3.008 0.495-5.328-2.604-6.813zm9.174 0.9785v0.001953c-0.023 9.86e-5 -0.04731 2.531e-4 -0.07031 0.001953-0.4431 0.02539-0.8137 0.3437-0.9082 0.7773-0.1174 0.5332 0.2188 1.06 0.752 1.178 0.534 0.1173 1.061-0.2216 1.178-0.7559 0.1173-0.534-0.2216-1.061-0.7559-1.178-0.0645-0.01513-0.129-0.02344-0.1953-0.02539zm-44.12 0.4883-0.5039 0.003906v13.8c0.3486 1e-3 0.6969 0.01849 1.008 0.05469l-0.5039-13.86zm57.56 0.3926c-0.02869-8.46e-5 -0.05733 0.001996-0.08593 0.003906-0.5567 0.03021-1.024 0.4279-1.143 0.9727-0.1465 0.6688 0.2783 1.329 0.9473 1.475 0.6688 0.1465 1.329-0.2763 1.475-0.9453 0.1465-0.6688-0.2783-1.329-0.9473-1.475-0.0805-0.01857-0.1616-0.02903-0.2441-0.03125h-0.00196zm-51.59 0.3984-4.068 13.24c0.6172 0.1035 1.361 0.3004 1.941 0.5312l3.1-13.52-0.9727-0.252zm28.55 0.5547v0.001953c-0.023 9.86e-5 -0.04731 2.531e-4 -0.07031 0.001953-0.4442 0.02417-0.8174 0.3427-0.9121 0.7773-0.1172 0.534 0.2216 1.061 0.7559 1.178 0.534 0.1173 1.061-0.2216 1.178-0.7559 0.1172-0.534-0.2216-1.061-0.7559-1.178-0.0645-0.01513-0.129-0.02344-0.1953-0.02539zm49.03 1.203-1.656 1.148c1.3 2.897-2.286 6.294-4.881 8.107 4e-3 -2.813-3.871-4.8-6.768-5.773l-0.6094 0.9902c3.799 1.061 7.661 3.897 5.189 6.344-2.277 1.531-4.913 3.046-7.684 4.467 0.8752-3.76-5.305-6.005-9.135-6.793l-0.3047 0.8438c3.563 0.8911 10.89 3.454 6.52 7.438-5.381 2.721-19.88 4.693-32.4 5.43v0.6973c8.632-0.4203 25.75-0.1612 38.33-7.107 11.72-6.474 14.49-10.5 13.41-15.79zm-71.06 0.8086-7.357 11.74c0.5694 0.2599 1.238 0.6442 1.738 1.018l6.492-12.25-0.873-0.5078zm67.41 0.8672c-0.6175 0.01848-1.104 0.5329-1.086 1.15 0.0184 0.6187 0.5356 1.105 1.154 1.086 0.6186-0.01855 1.103-0.5357 1.084-1.154-0.0201-0.6175-0.5349-1.101-1.152-1.082zm-61.76 3.305-10.15 9.434c0.4827 0.3982 1.029 0.9432 1.416 1.434l9.443-10.16-0.709-0.707zm51.11 0.5176c-0.5896 0.01752-1.054 0.508-1.037 1.098 0.0176 0.5908 0.5108 1.055 1.102 1.037 0.5908-0.0175 1.055-0.5108 1.037-1.102-0.0191-0.5896-0.5119-1.052-1.102-1.033zm-29.63 2.719c-6.089-0.004625-11.15 3.268-14.32 5.691l0.3613 0.6855c4.329-3.01 7.858-4.831 10.56-1.85l0.8574-0.6758c-1.163-1.029-1.872-1.44-3.109-1.656 5.293-1.911 7.587 0.1188 9.434 3.75l1.191-0.4121s-1.019-2.279-3.172-3.961c3.888 0.5119 7.609 2.316 9.555 5.621l1.533-0.9062c-1.71-2.41-3.991-4.048-6.482-5.037h-0.00781c-2.225-0.8831-4.367-1.248-6.396-1.25zm-17.04 2.301-12.24 6.488c0.363 0.5096 0.7488 1.175 0.9961 1.748l11.75-7.365-0.5078-0.8711zm34.84 0.04688c-0.5292 0.01566-0.9456 0.4571-0.9297 0.9863 0.0157 0.5303 0.46 0.9471 0.9902 0.9297 0.5282-0.01702 0.9437-0.4581 0.9277-0.9863-0.0157-0.5292-0.4591-0.9456-0.9883-0.9297zm-19.55 2.447c-0.3655 0.01305-0.7056 0.2402-0.8438 0.6035-0.1849 0.4842 0.05847 1.027 0.543 1.211 0.4842 0.1848 1.027-0.05853 1.211-0.543 0.1849-0.4842-0.05859-1.027-0.543-1.211-0.1211-0.04623-0.2454-0.0649-0.3672-0.06055zm-38.41 1.279v2.014c4.252 0.0012 7.772 3.309 8.037 7.553h-8.037v1.51h28.19s-8.054-1.51-18.12-1.51h-0.02734c-0.2687-5.352-4.681-9.557-10.04-9.566h-0.003906zm45.31 0.5117c-0.3705 0.01323-0.7134 0.2449-0.8535 0.6133-0.1875 0.4909 0.05766 1.04 0.5488 1.227 0.4909 0.1874 1.042-0.05968 1.229-0.5508 0.1875-0.4908-0.05974-1.04-0.5508-1.227-0.1227-0.04687-0.2496-0.06691-0.373-0.0625zm7.982 1.096c-0.3856 0.01377-0.7448 0.2533-0.8906 0.6367-0.195 0.5109 0.06308 1.083 0.5742 1.277 0.5108 0.195 1.083-0.06122 1.277-0.5723 0.1951-0.5108-0.06122-1.083-0.5723-1.277-0.1277-0.04878-0.2601-0.06904-0.3887-0.06445zm24.78 0.5059c1.872 4.108 6.7 4.383 9.719 4.732 1.103 2.065 0.183 2.576-2.125 2.652v1.596c1.635-0.0152 4.358-0.05756 4.252-2.227 2.998 2.206 6.536 2.287 10.15 2.117-5.089-2.8-7.387-4.701-4.857-7.689l-1.09-1.119-16.05-0.0625zm-52.13 0.5703-13.5 3.098c0.2188 0.5863 0.4195 1.331 0.5098 1.949l13.26-4.074-0.2695-0.9727zm53.59 0.3301h0.00391l13.79 0.04492c-2.037 1.979-0.7879 4.966 1.508 6.205-2.032-0.3227-4.388-1.103-5.729-3.336-2.05 2e-3 -7.66-0.01906-9.572-2.914zm18.49 0.6699a1.83 1.83 0 0 0-1.83 1.83 1.83 1.83 0 0 0 1.83 1.83 1.83 1.83 0 0 0 1.83-1.83 1.83 1.83 0 0 0-1.83-1.83z" fill="#222"/>
	<use transform="matrix(-1 0 0 1 200 0)" xlink:href="#p1"/>
</svg>
