<?xml version="1.0" encoding="UTF-8"?>
<svg width="30" height="30" version="1.1" xmlns="http://www.w3.org/2000/svg">
	<path d="m12.35 5c-4.412 0.001723-5.854 4-5.854 6h1.5v4h2v2.523c0-2e-6 -5.588 0.8812-5.588 5.293 0.2709 0.2709 1.679 0.4482 3.5 0.5527 0.4247-2.972 3.088-4.59 5.383-5.543-0.2949-2.308-1.846-4.218-1.861-6.799-0.01285-2.239 1.566-4.416 3.85-5.027-0.7861-0.5501-1.785-1-2.93-1zm5.293 2c-2.692 0-4.659 1.853-4.646 4 0.01764 3.008 2 5 2 8 0 0-6.177 1.405-5.295 5.816 2.647 0.8824 15 0.8824 15.88 0 0-4.412-5.588-5.293-5.588-5.293v-2.523h2v-4h1.5c0-2-1.442-5.998-5.854-6z" fill="#fff"/>
</svg>
