<?xml version="1.0" encoding="UTF-8"?>
<svg width="30" height="30" version="1.1" xmlns="http://www.w3.org/2000/svg">
  <path d="m18.97 2.5c-5.144 6.073-7.504 14.12-10.2 19.32l-2.267 5.682 1.831-1.594 1.569-4.088s4.533-2.273 7.933-7.955c-1.133-1.136-3.4 0-3.4 0 1.133-2.273 4.533-2.273 4.533-2.273 2.267-3.409 0-6.818 0-9.091zm-1.908 1.389c-3.021 2.451-8.553 8.114-8.363 16.61 3.336-7.684 4.318-11 8.363-16.61zm0.7747 14.52v2.273l-2.267 2.273v3.409a3.967 1.136 0 0 0 3.967 1.136 3.967 1.136 0 0 0 3.967-1.136v-3.409l-2.267-2.273v-2.273z" fill="#222"/>
</svg>
