<?xml version="1.0" encoding="UTF-8"?>
<svg width="32" height="32" version="1.1" xmlns="http://www.w3.org/2000/svg">
 <path d="m13.35 7c-4.412 0.00172-5.854 4-5.854 6h1.5v4h2v2.523c0-2e-6 -5.588 0.477-5.588 4.293 0.2709 0.2709 1.684 0.5527 3.592 0.5527 1-3.368 5.291-4.543 5.291-4.543 0-1.826-1.846-4.218-1.861-6.799-0.01285-2.239 1.566-4.416 3.85-5.027-0.7861-0.5501-1.785-1-2.93-1zm5.293 2c-2.692 0-4.659 1.853-4.646 4 0.01764 3.008 2 5 2 8 0 0-5.295 0.5687-5.295 4.816 1.298 1.184 14.3 1.184 15.88 0 0-4.318-5.588-4.293-5.588-4.293v-2.523h2v-4h1.5c0-2-1.442-5.998-5.854-6z" fill="#fcfcfc"/>
</svg>
