<?xml version="1.0" encoding="UTF-8"?>
<svg width="200" height="32" version="1.1" xmlns="http://www.w3.org/2000/svg" xmlns:xlink="http://www.w3.org/1999/xlink">
 <path id="a" d="m100.5 2.064-0.5391 0.00391v13.8c0.3613-2.53e-4 0.7229 0.01491 1.045 0.05273zm26.81 1.702-0.1612 0.9638c2.644 0.7383 3.083 3.931 2.089 5.915 0 0-2.346 1.067-3.684 2.145l0.3871 0.31c20.04-7.782 23.94 2.382 35.83-11.69l-1.811-0.9916s-4.979 8.733-17.28 7.907c2.171-3.425 1.462-6.596 1.462-6.596l-1.24 0.08893s0.5849 4.449-2.451 6.543c0 0-6.291 0.2856-9.65 1.697 0 0 1.216-5.248-3.488-6.291zm29.32-3.709c-0.5468 0.07751-0.9273 0.5836-0.8498 1.13 0.0775 0.5468 0.5836 0.9273 1.13 0.8498 0.5468-0.07751 0.9273-0.5836 0.8498-1.13-0.0775-0.5468-0.5836-0.9273-1.13-0.8498zm-15.97 2.075c-0.4784 0.06781-0.8114 0.5107-0.7435 0.9891 0.0678 0.4784 0.5107 0.8114 0.9891 0.7435 0.4784-0.06781 0.8114-0.5107 0.7435-0.9891-0.0678-0.4784-0.5107-0.8114-0.9891-0.7435zm-34.2 0.7258-4.068 13.24c0.6172 0.1035 1.361 0.3004 1.941 0.5312l3.1-13.52zm19.88 3.617c-0.4101 0.05813-0.6954 0.4377-0.6373 0.8478 0.0581 0.4101 0.4377 0.6955 0.8478 0.6373 0.4101-0.05813 0.6954-0.4377 0.6373-0.8478-0.0581-0.4101-0.4377-0.6955-0.8478-0.6373zm-13.36-1.05-7.355 11.74c0.5694 0.2599 1.236 0.6438 1.736 1.018l6.492-12.25zm86.31 1.68-1.668 1.145c1.3 2.897-2.212 6.806-4.807 8.619 4e-3 -2.813-3.945-5.312-6.842-6.285l-0.6094 0.9902c3.799 1.061 7.88 4.336 5.408 6.783-2.277 1.531-3.873 2.164-6.644 3.585 1.388-4.638-5.014-6.077-8.844-6.865l-0.3047 0.8438c3.563 0.8911 10.89 3.086 6.521 7.07-2.378 1.241-26.96 8.681-47.95 9.011h14.13c12.91-1.214 54.65-7.372 51.62-24.9zm-3.629 1.412c-0.5523 0-1 0.4477-1 1s0.4477 1 1 1 1-0.4477 1-1-0.4477-1-1-1zm-76.99 1.1-10.14 9.432c0.4828 0.3982 1.029 0.9418 1.416 1.432l9.443-10.16zm67.02 3.057c-0.4832 0-0.875 0.3918-0.875 0.875s0.3918 0.875 0.875 0.875 0.875-0.3918 0.875-0.875-0.3918-0.875-0.875-0.875zm-51.7 5.397 1.354 0.3223c12.97-5.921 16.01 1.984 16.01 1.984l1.283-0.3538s-1.255-3.824-4.617-4.473c5.147-0.7969 8.36 2.018 10.08 5.711l1.425-0.6383s-1.275-3.334-4.654-5.042c5.667 1.081 9.77 5.844 9.77 5.844l1.563-0.8527c-8.979-10.38-21.37-7.527-32.22-2.5zm-10.94-2.954-12.24 6.484c0.3632 0.5096 0.7492 1.175 0.9961 1.748l11.75-7.367zm52.21 2.133c-0.4142 0-0.75 0.3358-0.75 0.75s0.3358 0.75 0.75 0.75 0.75-0.3358 0.75-0.75-0.3358-0.75-0.75-0.75zm-75.3 1.66-0.0019 2.012c4.252 0.0012 7.772 3.309 8.037 7.553h-8.037v1.527h28s-5.99-1.527-17.96-1.527c-0.3024-5.35-4.682-9.555-10.04-9.564zm51.79 2.959c-0.4073 0.07534-0.6771 0.4666-0.6017 0.8739 0.0754 0.4073 0.4666 0.6771 0.8739 0.6017 0.4073-0.07534 0.6771-0.4666 0.6017-0.8739-0.0753-0.4073-0.4666-0.6771-0.8739-0.6017zm-25.85-0.278-13.5 3.098c0.2188 0.5863 0.4195 1.331 0.5098 1.949l13.26-4.074zm32.55 0.8374c-0.4752 0.0879-0.7902 0.5451-0.7023 1.02 0.0879 0.4752 0.5449 0.7883 1.02 0.7004 0.4752-0.0879 0.7883-0.5449 0.7004-1.02-0.0879-0.4752-0.5429-0.7885-1.018-0.7006zm7.4-0.09919c-0.5431 0.1005-0.9035 0.6216-0.803 1.165 0.1004 0.5431 0.6235 0.9033 1.167 0.8028 0.5431-0.1005 0.9707-0.5594 0.801-1.167-0.196-0.7011-0.6517-0.8811-1.165-0.801z" fill="#222"/>
 <use transform="matrix(-1,0,0,1,200,0)" xlink:href="#a"/>
</svg>
