<?xml version="1.0" encoding="UTF-8"?>
<svg width="32" height="32" version="1.1" xmlns="http://www.w3.org/2000/svg">
 <path d="m10 9c-1.108 0-2 0.892-2 2v4.586l9.414 9.414h4.586c1.108 0 2-0.892 2-2v-1h-1.711a2.5 2.5 0 0 1-2.289 1.5 2.5 2.5 0 0 1-2.5-2.5 2.5 2.5 0 0 1 0.1738-0.9121l-4.762-4.762a2.5 2.5 0 0 1-0.9121 0.1738 2.5 2.5 0 0 1-2.5-2.5 2.5 2.5 0 0 1 1.5-2.289v-1.711h-1zm3 0v1.711a2.5 2.5 0 0 1 1.5 2.289 2.5 2.5 0 0 1-0.1738 0.9121l4.762 4.762a2.5 2.5 0 0 1 0.9121-0.1738 2.5 2.5 0 0 1 2.289 1.5h1.711v-6h-1.711a2.5 2.5 0 0 1-2.289 1.5 2.5 2.5 0 0 1-2.5-2.5 2.5 2.5 0 0 1 2.5-2.5 2.5 2.5 0 0 1 2.289 1.5h1.711v-1c0-1.108-0.892-2-2-2h-9zm-1 3a1 1 0 0 0-1 1 1 1 0 0 0 1 1 1 1 0 0 0 1-1 1 1 0 0 0-1-1zm8 0a1 1 0 0 0-1 1 1 1 0 0 0 1 1 1 1 0 0 0 1-1 1 1 0 0 0-1-1zm-12 6.414v4.586c0 1.108 0.892 2 2 2h4.586zm12 1.586a1 1 0 0 0-1 1 1 1 0 0 0 1 1 1 1 0 0 0 1-1 1 1 0 0 0-1-1z" fill="#fff"/>
</svg>
